<mxfile host="app.diagrams.net" agent="Mozilla/5.0 (Windows NT 10.0; Win64; x64) AppleWebKit/537.36 (KHTML, like Gecko) Chrome/130.0.0.0 Safari/537.36 Edg/130.0.0.0" version="24.8.6" pages="2">
  <diagram id="C5RBs43oDa-KdzZeNtuy" name="Fever">
    <mxGraphModel dx="2986" dy="971" grid="1" gridSize="10" guides="1" tooltips="1" connect="1" arrows="1" fold="1" page="1" pageScale="1" pageWidth="1169" pageHeight="827" math="0" shadow="0">
      <root>
        <mxCell id="WIyWlLk6GJQsqaUBKTNV-0" />
        <mxCell id="WIyWlLk6GJQsqaUBKTNV-1" parent="WIyWlLk6GJQsqaUBKTNV-0" />
        <mxCell id="y3GGjWJshwR39_od9u1j-2" style="edgeStyle=orthogonalEdgeStyle;rounded=0;orthogonalLoop=1;jettySize=auto;html=1;" parent="WIyWlLk6GJQsqaUBKTNV-1" source="y3GGjWJshwR39_od9u1j-0" target="y3GGjWJshwR39_od9u1j-1" edge="1">
          <mxGeometry relative="1" as="geometry" />
        </mxCell>
        <mxCell id="y3GGjWJshwR39_od9u1j-5" style="edgeStyle=orthogonalEdgeStyle;rounded=0;orthogonalLoop=1;jettySize=auto;html=1;exitX=1;exitY=0.5;exitDx=0;exitDy=0;entryX=0.5;entryY=0;entryDx=0;entryDy=0;" parent="WIyWlLk6GJQsqaUBKTNV-1" source="y3GGjWJshwR39_od9u1j-0" target="y3GGjWJshwR39_od9u1j-3" edge="1">
          <mxGeometry relative="1" as="geometry">
            <Array as="points">
              <mxPoint x="1139" y="70" />
            </Array>
          </mxGeometry>
        </mxCell>
        <mxCell id="y3GGjWJshwR39_od9u1j-0" value="Fever" style="rounded=1;whiteSpace=wrap;html=1;" parent="WIyWlLk6GJQsqaUBKTNV-1" vertex="1">
          <mxGeometry x="580" y="40" width="120" height="60" as="geometry" />
        </mxCell>
        <mxCell id="y3GGjWJshwR39_od9u1j-9" style="edgeStyle=orthogonalEdgeStyle;rounded=0;orthogonalLoop=1;jettySize=auto;html=1;exitX=0.5;exitY=1;exitDx=0;exitDy=0;entryX=0.5;entryY=0;entryDx=0;entryDy=0;" parent="WIyWlLk6GJQsqaUBKTNV-1" target="y3GGjWJshwR39_od9u1j-6" edge="1">
          <mxGeometry relative="1" as="geometry">
            <mxPoint x="105.99999999999977" y="200" as="sourcePoint" />
            <mxPoint x="-289" y="280" as="targetPoint" />
          </mxGeometry>
        </mxCell>
        <mxCell id="y3GGjWJshwR39_od9u1j-11" style="edgeStyle=orthogonalEdgeStyle;rounded=0;orthogonalLoop=1;jettySize=auto;html=1;exitX=1;exitY=0.5;exitDx=0;exitDy=0;entryX=0.5;entryY=0;entryDx=0;entryDy=0;" parent="WIyWlLk6GJQsqaUBKTNV-1" source="y3GGjWJshwR39_od9u1j-1" target="y3GGjWJshwR39_od9u1j-7" edge="1">
          <mxGeometry relative="1" as="geometry" />
        </mxCell>
        <mxCell id="y3GGjWJshwR39_od9u1j-1" value="Less than one week" style="rhombus;whiteSpace=wrap;html=1;" parent="WIyWlLk6GJQsqaUBKTNV-1" vertex="1">
          <mxGeometry x="106" y="145" width="150" height="110" as="geometry" />
        </mxCell>
        <mxCell id="y3GGjWJshwR39_od9u1j-28" style="edgeStyle=orthogonalEdgeStyle;rounded=0;orthogonalLoop=1;jettySize=auto;html=1;exitX=0;exitY=0.5;exitDx=0;exitDy=0;entryX=0.5;entryY=0;entryDx=0;entryDy=0;" parent="WIyWlLk6GJQsqaUBKTNV-1" source="y3GGjWJshwR39_od9u1j-3" target="y3GGjWJshwR39_od9u1j-27" edge="1">
          <mxGeometry relative="1" as="geometry" />
        </mxCell>
        <mxCell id="y3GGjWJshwR39_od9u1j-31" style="edgeStyle=orthogonalEdgeStyle;rounded=0;orthogonalLoop=1;jettySize=auto;html=1;exitX=0.5;exitY=1;exitDx=0;exitDy=0;" parent="WIyWlLk6GJQsqaUBKTNV-1" source="y3GGjWJshwR39_od9u1j-3" target="y3GGjWJshwR39_od9u1j-30" edge="1">
          <mxGeometry relative="1" as="geometry" />
        </mxCell>
        <mxCell id="y3GGjWJshwR39_od9u1j-35" style="edgeStyle=orthogonalEdgeStyle;rounded=0;orthogonalLoop=1;jettySize=auto;html=1;exitX=0.5;exitY=1;exitDx=0;exitDy=0;entryX=0.5;entryY=0;entryDx=0;entryDy=0;" parent="WIyWlLk6GJQsqaUBKTNV-1" source="y3GGjWJshwR39_od9u1j-3" target="y3GGjWJshwR39_od9u1j-34" edge="1">
          <mxGeometry relative="1" as="geometry" />
        </mxCell>
        <mxCell id="y3GGjWJshwR39_od9u1j-38" style="edgeStyle=orthogonalEdgeStyle;rounded=0;orthogonalLoop=1;jettySize=auto;html=1;exitX=1;exitY=0.5;exitDx=0;exitDy=0;entryX=0.5;entryY=0;entryDx=0;entryDy=0;" parent="WIyWlLk6GJQsqaUBKTNV-1" source="y3GGjWJshwR39_od9u1j-3" target="y3GGjWJshwR39_od9u1j-37" edge="1">
          <mxGeometry relative="1" as="geometry" />
        </mxCell>
        <mxCell id="y3GGjWJshwR39_od9u1j-3" value="More than 1 week" style="rhombus;whiteSpace=wrap;html=1;" parent="WIyWlLk6GJQsqaUBKTNV-1" vertex="1">
          <mxGeometry x="1064" y="145" width="150" height="110" as="geometry" />
        </mxCell>
        <mxCell id="y3GGjWJshwR39_od9u1j-15" style="edgeStyle=orthogonalEdgeStyle;rounded=0;orthogonalLoop=1;jettySize=auto;html=1;exitX=0;exitY=0.5;exitDx=0;exitDy=0;entryX=0.5;entryY=0;entryDx=0;entryDy=0;" parent="WIyWlLk6GJQsqaUBKTNV-1" source="y3GGjWJshwR39_od9u1j-6" target="y3GGjWJshwR39_od9u1j-12" edge="1">
          <mxGeometry relative="1" as="geometry" />
        </mxCell>
        <mxCell id="y3GGjWJshwR39_od9u1j-16" style="edgeStyle=orthogonalEdgeStyle;rounded=0;orthogonalLoop=1;jettySize=auto;html=1;exitX=0.5;exitY=1;exitDx=0;exitDy=0;entryX=0.5;entryY=0;entryDx=0;entryDy=0;" parent="WIyWlLk6GJQsqaUBKTNV-1" source="y3GGjWJshwR39_od9u1j-6" target="y3GGjWJshwR39_od9u1j-13" edge="1">
          <mxGeometry relative="1" as="geometry" />
        </mxCell>
        <mxCell id="y3GGjWJshwR39_od9u1j-17" style="edgeStyle=orthogonalEdgeStyle;rounded=0;orthogonalLoop=1;jettySize=auto;html=1;exitX=1;exitY=0.5;exitDx=0;exitDy=0;entryX=0.5;entryY=0;entryDx=0;entryDy=0;" parent="WIyWlLk6GJQsqaUBKTNV-1" source="y3GGjWJshwR39_od9u1j-6" target="y3GGjWJshwR39_od9u1j-14" edge="1">
          <mxGeometry relative="1" as="geometry" />
        </mxCell>
        <mxCell id="y3GGjWJshwR39_od9u1j-6" value="High Fever" style="rounded=1;whiteSpace=wrap;html=1;" parent="WIyWlLk6GJQsqaUBKTNV-1" vertex="1">
          <mxGeometry x="-134" y="330" width="120" height="60" as="geometry" />
        </mxCell>
        <mxCell id="y3GGjWJshwR39_od9u1j-23" style="edgeStyle=orthogonalEdgeStyle;rounded=0;orthogonalLoop=1;jettySize=auto;html=1;exitX=1;exitY=0.5;exitDx=0;exitDy=0;entryX=0.5;entryY=0;entryDx=0;entryDy=0;" parent="WIyWlLk6GJQsqaUBKTNV-1" source="y3GGjWJshwR39_od9u1j-7" target="y3GGjWJshwR39_od9u1j-22" edge="1">
          <mxGeometry relative="1" as="geometry" />
        </mxCell>
        <mxCell id="y3GGjWJshwR39_od9u1j-24" style="edgeStyle=orthogonalEdgeStyle;rounded=0;orthogonalLoop=1;jettySize=auto;html=1;exitX=0;exitY=0.5;exitDx=0;exitDy=0;entryX=0.5;entryY=0;entryDx=0;entryDy=0;" parent="WIyWlLk6GJQsqaUBKTNV-1" source="y3GGjWJshwR39_od9u1j-7" target="y3GGjWJshwR39_od9u1j-21" edge="1">
          <mxGeometry relative="1" as="geometry" />
        </mxCell>
        <mxCell id="y3GGjWJshwR39_od9u1j-7" value="Fever" style="rounded=1;whiteSpace=wrap;html=1;" parent="WIyWlLk6GJQsqaUBKTNV-1" vertex="1">
          <mxGeometry x="386" y="330" width="120" height="60" as="geometry" />
        </mxCell>
        <mxCell id="y3GGjWJshwR39_od9u1j-12" value="Malaria" style="rounded=1;whiteSpace=wrap;html=1;" parent="WIyWlLk6GJQsqaUBKTNV-1" vertex="1">
          <mxGeometry x="-304" y="470" width="120" height="60" as="geometry" />
        </mxCell>
        <mxCell id="y3GGjWJshwR39_od9u1j-13" value="Typhoid" style="rounded=1;whiteSpace=wrap;html=1;" parent="WIyWlLk6GJQsqaUBKTNV-1" vertex="1">
          <mxGeometry x="-134" y="470" width="120" height="60" as="geometry" />
        </mxCell>
        <mxCell id="y3GGjWJshwR39_od9u1j-14" value="Dengue" style="rounded=1;whiteSpace=wrap;html=1;" parent="WIyWlLk6GJQsqaUBKTNV-1" vertex="1">
          <mxGeometry x="32.5" y="470" width="120" height="60" as="geometry" />
        </mxCell>
        <mxCell id="y3GGjWJshwR39_od9u1j-18" value="Chills" style="text;html=1;align=center;verticalAlign=middle;whiteSpace=wrap;rounded=0;" parent="WIyWlLk6GJQsqaUBKTNV-1" vertex="1">
          <mxGeometry x="-297" y="410" width="60" height="30" as="geometry" />
        </mxCell>
        <mxCell id="y3GGjWJshwR39_od9u1j-19" value="Loss of appetite" style="text;html=1;align=center;verticalAlign=middle;whiteSpace=wrap;rounded=0;" parent="WIyWlLk6GJQsqaUBKTNV-1" vertex="1">
          <mxGeometry x="-134" y="410" width="60" height="30" as="geometry" />
        </mxCell>
        <mxCell id="y3GGjWJshwR39_od9u1j-20" value="Aches" style="text;html=1;align=center;verticalAlign=middle;whiteSpace=wrap;rounded=0;" parent="WIyWlLk6GJQsqaUBKTNV-1" vertex="1">
          <mxGeometry x="23" y="410" width="60" height="30" as="geometry" />
        </mxCell>
        <mxCell id="y3GGjWJshwR39_od9u1j-21" value="Bacterial infection" style="rounded=1;whiteSpace=wrap;html=1;" parent="WIyWlLk6GJQsqaUBKTNV-1" vertex="1">
          <mxGeometry x="266" y="470" width="120" height="60" as="geometry" />
        </mxCell>
        <mxCell id="y3GGjWJshwR39_od9u1j-22" value="Viral infection" style="rounded=1;whiteSpace=wrap;html=1;" parent="WIyWlLk6GJQsqaUBKTNV-1" vertex="1">
          <mxGeometry x="506" y="470" width="120" height="60" as="geometry" />
        </mxCell>
        <mxCell id="y3GGjWJshwR39_od9u1j-25" value="Localized pain and pus formation" style="text;html=1;align=center;verticalAlign=middle;whiteSpace=wrap;rounded=0;" parent="WIyWlLk6GJQsqaUBKTNV-1" vertex="1">
          <mxGeometry x="256" y="410" width="60" height="30" as="geometry" />
        </mxCell>
        <mxCell id="y3GGjWJshwR39_od9u1j-26" value="Runny nose and cough" style="text;html=1;align=center;verticalAlign=middle;whiteSpace=wrap;rounded=0;" parent="WIyWlLk6GJQsqaUBKTNV-1" vertex="1">
          <mxGeometry x="576" y="410" width="60" height="30" as="geometry" />
        </mxCell>
        <mxCell id="y3GGjWJshwR39_od9u1j-27" value="HIV/AIDS" style="rounded=1;whiteSpace=wrap;html=1;" parent="WIyWlLk6GJQsqaUBKTNV-1" vertex="1">
          <mxGeometry x="755" y="330" width="118" height="60" as="geometry" />
        </mxCell>
        <mxCell id="y3GGjWJshwR39_od9u1j-29" value="Swolen lymph nodes" style="text;html=1;align=center;verticalAlign=middle;whiteSpace=wrap;rounded=0;" parent="WIyWlLk6GJQsqaUBKTNV-1" vertex="1">
          <mxGeometry x="755" y="260" width="60" height="30" as="geometry" />
        </mxCell>
        <mxCell id="y3GGjWJshwR39_od9u1j-30" value="Tuberculosis" style="rounded=1;whiteSpace=wrap;html=1;" parent="WIyWlLk6GJQsqaUBKTNV-1" vertex="1">
          <mxGeometry x="905" y="330" width="118" height="60" as="geometry" />
        </mxCell>
        <mxCell id="y3GGjWJshwR39_od9u1j-32" value="Night sweats" style="text;html=1;align=center;verticalAlign=middle;whiteSpace=wrap;rounded=0;" parent="WIyWlLk6GJQsqaUBKTNV-1" vertex="1">
          <mxGeometry x="1000" y="260" width="60" height="30" as="geometry" />
        </mxCell>
        <mxCell id="y3GGjWJshwR39_od9u1j-34" value="Malnutrition" style="rounded=1;whiteSpace=wrap;html=1;" parent="WIyWlLk6GJQsqaUBKTNV-1" vertex="1">
          <mxGeometry x="1255" y="330" width="118" height="60" as="geometry" />
        </mxCell>
        <mxCell id="y3GGjWJshwR39_od9u1j-36" value="Poor growth" style="text;html=1;align=center;verticalAlign=middle;whiteSpace=wrap;rounded=0;" parent="WIyWlLk6GJQsqaUBKTNV-1" vertex="1">
          <mxGeometry x="1160" y="260" width="110" height="30" as="geometry" />
        </mxCell>
        <mxCell id="y3GGjWJshwR39_od9u1j-37" value="Chronic infection" style="rounded=1;whiteSpace=wrap;html=1;" parent="WIyWlLk6GJQsqaUBKTNV-1" vertex="1">
          <mxGeometry x="1400" y="330" width="120" height="60" as="geometry" />
        </mxCell>
        <mxCell id="y3GGjWJshwR39_od9u1j-39" value="Weight loss" style="text;html=1;align=center;verticalAlign=middle;whiteSpace=wrap;rounded=0;" parent="WIyWlLk6GJQsqaUBKTNV-1" vertex="1">
          <mxGeometry x="1460" y="260" width="60" height="30" as="geometry" />
        </mxCell>
      </root>
    </mxGraphModel>
  </diagram>
  <diagram id="Le9opOdoyHRmmVnkSs3R" name="Respiratory">
    <mxGraphModel dx="971" dy="514" grid="1" gridSize="10" guides="1" tooltips="1" connect="1" arrows="1" fold="1" page="1" pageScale="1" pageWidth="1169" pageHeight="827" math="0" shadow="0">
      <root>
        <mxCell id="0" />
        <mxCell id="1" parent="0" />
        <mxCell id="LojW-wUA0k2RIO8treUr-4" style="edgeStyle=orthogonalEdgeStyle;rounded=0;orthogonalLoop=1;jettySize=auto;html=1;exitX=1;exitY=0.5;exitDx=0;exitDy=0;entryX=0.5;entryY=0;entryDx=0;entryDy=0;" parent="1" source="LojW-wUA0k2RIO8treUr-1" target="LojW-wUA0k2RIO8treUr-3" edge="1">
          <mxGeometry relative="1" as="geometry" />
        </mxCell>
        <mxCell id="LojW-wUA0k2RIO8treUr-5" style="edgeStyle=orthogonalEdgeStyle;rounded=0;orthogonalLoop=1;jettySize=auto;html=1;exitX=0;exitY=0.5;exitDx=0;exitDy=0;entryX=0.5;entryY=0;entryDx=0;entryDy=0;" parent="1" source="LojW-wUA0k2RIO8treUr-1" target="LojW-wUA0k2RIO8treUr-2" edge="1">
          <mxGeometry relative="1" as="geometry" />
        </mxCell>
        <mxCell id="LojW-wUA0k2RIO8treUr-1" value="Cough" style="rounded=1;whiteSpace=wrap;html=1;" parent="1" vertex="1">
          <mxGeometry x="210" y="30" width="120" height="60" as="geometry" />
        </mxCell>
        <mxCell id="LojW-wUA0k2RIO8treUr-12" style="edgeStyle=orthogonalEdgeStyle;rounded=0;orthogonalLoop=1;jettySize=auto;html=1;exitX=0.5;exitY=1;exitDx=0;exitDy=0;entryX=0.5;entryY=0;entryDx=0;entryDy=0;" parent="1" source="LojW-wUA0k2RIO8treUr-2" target="LojW-wUA0k2RIO8treUr-7" edge="1">
          <mxGeometry relative="1" as="geometry" />
        </mxCell>
        <mxCell id="LojW-wUA0k2RIO8treUr-2" value="Productive cough" style="rounded=1;whiteSpace=wrap;html=1;" parent="1" vertex="1">
          <mxGeometry y="140" width="120" height="60" as="geometry" />
        </mxCell>
        <mxCell id="LojW-wUA0k2RIO8treUr-14" style="edgeStyle=orthogonalEdgeStyle;rounded=0;orthogonalLoop=1;jettySize=auto;html=1;exitX=0;exitY=0.5;exitDx=0;exitDy=0;entryX=0.5;entryY=0;entryDx=0;entryDy=0;" parent="1" source="LojW-wUA0k2RIO8treUr-3" target="LojW-wUA0k2RIO8treUr-13" edge="1">
          <mxGeometry relative="1" as="geometry" />
        </mxCell>
        <mxCell id="LojW-wUA0k2RIO8treUr-17" style="edgeStyle=orthogonalEdgeStyle;rounded=0;orthogonalLoop=1;jettySize=auto;html=1;exitX=1;exitY=0.5;exitDx=0;exitDy=0;entryX=0.5;entryY=0;entryDx=0;entryDy=0;" parent="1" source="LojW-wUA0k2RIO8treUr-3" target="LojW-wUA0k2RIO8treUr-16" edge="1">
          <mxGeometry relative="1" as="geometry" />
        </mxCell>
        <mxCell id="LojW-wUA0k2RIO8treUr-3" value="Dry cough" style="rounded=1;whiteSpace=wrap;html=1;" parent="1" vertex="1">
          <mxGeometry x="440" y="140" width="120" height="60" as="geometry" />
        </mxCell>
        <mxCell id="LojW-wUA0k2RIO8treUr-7" value="Pneumonia" style="rounded=1;whiteSpace=wrap;html=1;" parent="1" vertex="1">
          <mxGeometry y="240" width="120" height="60" as="geometry" />
        </mxCell>
        <mxCell id="LojW-wUA0k2RIO8treUr-11" value="Chest pain" style="text;html=1;align=center;verticalAlign=middle;whiteSpace=wrap;rounded=0;" parent="1" vertex="1">
          <mxGeometry x="66" y="203" width="60" height="30" as="geometry" />
        </mxCell>
        <mxCell id="LojW-wUA0k2RIO8treUr-13" value="Asthma" style="rounded=1;whiteSpace=wrap;html=1;" parent="1" vertex="1">
          <mxGeometry x="320" y="240" width="120" height="60" as="geometry" />
        </mxCell>
        <mxCell id="LojW-wUA0k2RIO8treUr-15" value="Chest tightness" style="text;html=1;align=center;verticalAlign=middle;whiteSpace=wrap;rounded=0;" parent="1" vertex="1">
          <mxGeometry x="310" y="190" width="60" height="30" as="geometry" />
        </mxCell>
        <mxCell id="LojW-wUA0k2RIO8treUr-16" value="Bronchitis" style="rounded=1;whiteSpace=wrap;html=1;" parent="1" vertex="1">
          <mxGeometry x="560" y="240" width="120" height="60" as="geometry" />
        </mxCell>
        <mxCell id="LojW-wUA0k2RIO8treUr-18" value="Shortness of breath" style="text;html=1;align=center;verticalAlign=middle;whiteSpace=wrap;rounded=0;" parent="1" vertex="1">
          <mxGeometry x="628" y="190" width="60" height="30" as="geometry" />
        </mxCell>
        <mxCell id="LojW-wUA0k2RIO8treUr-21" style="edgeStyle=orthogonalEdgeStyle;rounded=0;orthogonalLoop=1;jettySize=auto;html=1;exitX=0.5;exitY=1;exitDx=0;exitDy=0;entryX=0.5;entryY=0;entryDx=0;entryDy=0;" parent="1" source="LojW-wUA0k2RIO8treUr-19" target="LojW-wUA0k2RIO8treUr-20" edge="1">
          <mxGeometry relative="1" as="geometry" />
        </mxCell>
        <mxCell id="LojW-wUA0k2RIO8treUr-19" value="Shortness of breath" style="rounded=1;whiteSpace=wrap;html=1;" parent="1" vertex="1">
          <mxGeometry x="20" y="350" width="120" height="60" as="geometry" />
        </mxCell>
        <mxCell id="LojW-wUA0k2RIO8treUr-20" value="Heart faliure" style="rounded=1;whiteSpace=wrap;html=1;direction=east;" parent="1" vertex="1">
          <mxGeometry x="20" y="460" width="120" height="60" as="geometry" />
        </mxCell>
        <mxCell id="LojW-wUA0k2RIO8treUr-22" value="Swelling in legs, ankles, feet." style="text;html=1;align=center;verticalAlign=middle;whiteSpace=wrap;rounded=0;" parent="1" vertex="1">
          <mxGeometry x="90" y="420" width="90" height="30" as="geometry" />
        </mxCell>
        <mxCell id="LojW-wUA0k2RIO8treUr-25" style="edgeStyle=orthogonalEdgeStyle;rounded=0;orthogonalLoop=1;jettySize=auto;html=1;exitX=0.5;exitY=1;exitDx=0;exitDy=0;" parent="1" source="LojW-wUA0k2RIO8treUr-23" target="LojW-wUA0k2RIO8treUr-24" edge="1">
          <mxGeometry relative="1" as="geometry" />
        </mxCell>
        <mxCell id="LojW-wUA0k2RIO8treUr-23" value="Chest pain" style="rounded=1;whiteSpace=wrap;html=1;" parent="1" vertex="1">
          <mxGeometry x="240" y="350" width="120" height="60" as="geometry" />
        </mxCell>
        <mxCell id="LojW-wUA0k2RIO8treUr-24" value="Heart attack" style="rounded=1;whiteSpace=wrap;html=1;" parent="1" vertex="1">
          <mxGeometry x="240" y="460" width="120" height="60" as="geometry" />
        </mxCell>
        <mxCell id="LojW-wUA0k2RIO8treUr-26" value="Nausea" style="text;html=1;align=center;verticalAlign=middle;whiteSpace=wrap;rounded=0;" parent="1" vertex="1">
          <mxGeometry x="310" y="420" width="60" height="30" as="geometry" />
        </mxCell>
      </root>
    </mxGraphModel>
  </diagram>
</mxfile>
